<svg width="76" height="75" viewBox="0 0 76 75" fill="none" xmlns="http://www.w3.org/2000/svg">
<path fill-rule="evenodd" clip-rule="evenodd" d="M68.748 5.45703H7C5.89544 5.45703 5 6.35246 5 7.45704V67.7484C5 68.8529 5.89543 69.7484 7 69.7484H68.748C69.8526 69.7484 70.748 68.8529 70.748 67.7484V7.45703C70.748 6.35246 69.8526 5.45703 68.748 5.45703ZM7 0.457031C3.13401 0.457031 0 3.59105 0 7.45704V67.7484C0 71.6144 3.13401 74.7484 7 74.7484H68.748C72.614 74.7484 75.748 71.6143 75.748 67.7484V7.45703C75.748 3.59104 72.614 0.457031 68.748 0.457031H7Z" fill="white"/>
<path fill-rule="evenodd" clip-rule="evenodd" d="M37.874 2.02011C18.1399 2.02011 2.13751 18.0189 2.13751 37.7566C2.13751 53.5465 12.3771 66.9415 26.5763 71.6675C28.3617 71.9989 29.0174 70.8922 29.0174 69.9483C29.0174 69.0962 28.9843 66.2811 28.9689 63.2949C19.027 65.4567 16.9291 59.0785 16.9291 59.0785C15.3035 54.9479 12.9612 53.8495 12.9612 53.8495C9.71824 51.6315 13.2056 51.6777 13.2056 51.6777C16.7936 51.9292 18.6837 55.3603 18.6837 55.3603C21.8711 60.8225 27.0438 59.2436 29.0831 58.3311C29.4038 56.0214 30.33 54.4443 31.352 53.5518C23.4144 52.6494 15.0697 49.5845 15.0697 35.8913C15.0697 31.9897 16.4663 28.8018 18.7524 26.2985C18.3807 25.399 17.1575 21.7643 19.098 16.8419C19.098 16.8419 22.0983 15.8814 28.9275 20.505C31.7787 19.7126 34.8364 19.3143 37.874 19.3007C40.9099 19.3143 43.9694 19.7114 46.8259 20.5038C53.6468 15.8802 56.6436 16.8407 56.6436 16.8407C58.5887 21.7625 57.3655 25.3978 56.9945 26.2974C59.2859 28.8006 60.6724 31.9885 60.6724 35.8901C60.6724 49.6159 52.3123 52.6376 44.3546 53.5229C45.637 54.6319 46.7791 56.8072 46.7791 60.1407C46.7791 64.9223 46.7377 68.7707 46.7377 69.9478C46.7377 70.8988 47.3816 72.0131 49.1924 71.6621C63.3833 66.9314 73.6111 53.5406 73.6111 37.7566C73.6105 18.0201 57.6099 2.02011 37.874 2.02011Z" fill="white"/>
<path d="M15.6727 53.3293C15.594 53.5069 15.3147 53.5601 15.0602 53.4388C14.7999 53.3228 14.6549 53.0808 14.7389 52.9027C14.8158 52.7192 15.0958 52.6689 15.3544 52.7914C15.6147 52.908 15.7633 53.1518 15.6727 53.3293ZM17.1202 54.9443C16.9504 55.1023 16.6172 55.0289 16.3912 54.7786C16.1568 54.5301 16.113 54.1969 16.2864 54.0365C16.4628 53.8791 16.7859 53.9537 17.0202 54.2022C17.2534 54.4543 17.299 54.7839 17.1202 54.9443ZM18.5299 57.0019C18.3109 57.1546 17.9523 57.012 17.731 56.6942C17.512 56.3758 17.512 55.9941 17.7369 55.842C17.9576 55.6894 18.3109 55.8272 18.5358 56.1421C18.7536 56.4646 18.7536 56.8469 18.5299 57.0019ZM20.4597 58.9909C20.2644 59.2069 19.8466 59.1489 19.5412 58.8548C19.2293 58.5666 19.1424 58.1565 19.3382 57.9411C19.5371 57.7245 19.9566 57.7849 20.2638 58.0772C20.5756 58.3648 20.6697 58.7755 20.4608 58.9903L20.4597 58.9909ZM23.1227 60.1455C23.0357 60.4254 22.6345 60.5526 22.2291 60.4331C21.8249 60.3106 21.5604 59.9833 21.6432 59.7005C21.7261 59.4182 22.1303 59.2862 22.538 59.4134C22.9422 59.5354 23.2067 59.8608 23.1227 60.1455ZM26.0479 60.3591C26.0579 60.6538 25.7147 60.8976 25.2904 60.9035C24.8625 60.9136 24.5163 60.6745 24.5122 60.3846C24.5122 60.0869 24.8483 59.846 25.2756 59.8378C25.6999 59.8301 26.0479 60.0674 26.0479 60.3591ZM28.7689 59.8963C28.8198 60.1834 28.5245 60.4786 28.1025 60.5574C27.6883 60.6343 27.3036 60.4556 27.2504 60.1709C27.1995 59.8762 27.5001 59.5809 27.9143 59.5046C28.3369 59.4318 28.7156 59.6046 28.7689 59.8963Z" fill="white"/>
<path d="M17.4803 64.5514L3.27756 45.6144L2.54921 56.9038V72.5632L24.3996 73.6558L28.7697 71.4707L17.4803 64.5514Z" fill="white"/>
<path d="M17.015 11.1362L3.60127 30.3191L2.91339 18.8832V3.02034L23.5499 1.91363L27.6772 4.12705L17.015 11.1362Z" fill="white"/>
<path d="M58.6319 11.018L72.8346 29.955L73.563 18.6656V3.00615L51.7126 1.91363L47.3425 4.09867L58.6319 11.018Z" fill="white"/>
<path d="M58.6319 64.5514L72.8346 45.6144L73.563 56.9038V72.5632L51.7126 73.6558L47.3425 71.4707L58.6319 64.5514Z" fill="white"/>
</svg>
