<svg width="78" height="78" viewBox="0 0 78 78" fill="none" xmlns="http://www.w3.org/2000/svg">
<path d="M70.762 1.80936H8.03319C6.60992 1.79488 5.23903 2.3456 4.22132 3.34069C3.20362 4.33577 2.62223 5.69395 2.60474 7.11719V70.0994C2.6254 71.5205 3.20818 72.8756 4.22554 73.8681C5.24289 74.8606 6.61198 75.4096 8.03319 75.3951H70.762C72.1854 75.4064 73.5554 74.8538 74.5725 73.8581C75.5897 72.8624 76.1714 71.5045 76.1905 70.0813V7.09909C76.1651 5.68002 75.5807 4.32833 74.5641 3.33781C73.5477 2.34729 72.1813 1.79801 70.762 1.80936ZM24.4211 64.5382H13.4978V29.392H24.4211V64.5382ZM18.9926 24.6028C17.7398 24.604 16.5147 24.2336 15.4725 23.5384C14.4302 22.8433 13.6175 21.8546 13.1372 20.6974C12.657 19.5403 12.5307 18.2667 12.7744 17.0378C13.0181 15.8089 13.6208 14.6799 14.5062 13.7935C15.3917 12.9072 16.5202 12.3034 17.7488 12.0586C18.9775 11.8137 20.2512 11.9388 21.4088 12.418C22.5664 12.8971 23.5559 13.7089 24.2521 14.7505C24.9482 15.7921 25.3198 17.0168 25.3198 18.2696C25.3182 19.1024 25.1525 19.9266 24.832 20.6951C24.5115 21.4637 24.0426 22.1615 23.4521 22.7486C22.8616 23.3358 22.1611 23.8007 21.3907 24.1168C20.6203 24.4329 19.7952 24.594 18.9625 24.5908L18.9926 24.6028ZM65.3336 64.5382H54.4103V47.4386C54.4103 43.3672 54.3379 38.1257 48.7346 38.1257C43.1312 38.1257 42.1782 42.565 42.1782 47.1732V64.5382H31.273V29.392H41.7439V34.2173H41.8887C43.3483 31.4548 46.907 28.5415 52.2208 28.5415C63.2828 28.5174 65.3336 35.7975 65.3336 45.237V64.5382Z" fill="white"/>
</svg>
